<svg xmlns="http://www.w3.org/2000/svg" viewBox="0 0 2582.76 242.18" height="242" width="2582">
  <g id="Camada_2" data-name="Camada 2">
    <g id="svg4">
      <g id="path2-9">
        <path fill="white"
          d="M277.3,8.47a1.93,1.93,0,0,0-1.5.7L157.2,157.47a1.76,1.76,0,0,0,.3,2.5,1.5,1.5,0,0,0,1.1.4h85.7a7.25,7.25,0,0,0,5.9-2.9l27.1-33.8a7.6,7.6,0,0,0,1.7-4.8V10.27a1.66,1.66,0,0,0-1.7-1.8ZM1.7,7.87A1.71,1.71,0,0,0,0,9.67v108.6a7.81,7.81,0,0,0,1.7,4.8l89.1,111.4a7.54,7.54,0,0,0,5.9,2.9h85.7a1.79,1.79,0,0,0,1.4-2.9L3.2,8.67a1.89,1.89,0,0,0-1.5-.8Z" />
      </g>
      <g class="cls-1">
        <path fill="white"
          d="M387.69,232.71l171-223a13.52,13.52,0,0,1,11-5.33H602a4,4,0,0,1,4,4V165.47L725.52,9.7a13.5,13.5,0,0,1,11-5.33H768a4,4,0,0,1,4,4v225a4,4,0,0,1-4,4H733.32q-4.32,0-4.32-4V76.27L609.57,232.05a13.53,13.53,0,0,1-11,5.32H567a4,4,0,0,1-4-4V76.27L443.24,232.05a13.53,13.53,0,0,1-11,5.32H390a3.06,3.06,0,0,1-2.66-1.5A2.48,2.48,0,0,1,387.69,232.71Z" />
        <path fill="white"
          d="M820,8.33a3.68,3.68,0,0,1,.67-2.21A4,4,0,0,1,824,4.37H967a4,4,0,0,1,4,4v34a4,4,0,0,1-4,4H862v54h84a4,4,0,0,1,4,4v33.71q0,4.31-4,4.3H862v53H976.76a2.9,2.9,0,0,1,2.81,1.66,2.36,2.36,0,0,1-.5,3L954.6,232.08a13.47,13.47,0,0,1-10.91,5.29H824a3.84,3.84,0,0,1-2.83-1.16,3.88,3.88,0,0,1-1.16-2.83Z" />
        <path fill="white"
          d="M1017,4.37h32a13.42,13.42,0,0,1,10.91,5.33L1179,165.47V8.36a4,4,0,0,1,4-4h31.4A13.45,13.45,0,0,1,1225.3,9.7l170,223a2.7,2.7,0,0,1,.5,3.16,2.94,2.94,0,0,1-2.81,1.5h-42a13.41,13.41,0,0,1-10.91-5.32L1221,76.27V233.38a4,4,0,0,1-4,4h-29.32a13.71,13.71,0,0,1-11.09-5.32L1056,76.27V233.38q0,4-4.37,4H1017a3.87,3.87,0,0,1-2.85-1.16,3.82,3.82,0,0,1-1.18-2.83V8.37a3.82,3.82,0,0,1,1.18-2.83A3.88,3.88,0,0,1,1017,4.37Z" />
        <path fill="white"
          d="M1396.64,120.09a121,121,0,0,1,35.09-86A117.61,117.61,0,0,1,1517.05,0a120.21,120.21,0,0,1,85.32,36.26A124.51,124.51,0,0,1,1627.82,75a116.19,116.19,0,0,1,9,47.07,120.07,120.07,0,0,1-10,47.23,122.49,122.49,0,0,1-26.11,38.25A119.15,119.15,0,0,1,1562.29,233a121.54,121.54,0,0,1-47.23,9.15,117,117,0,0,1-84.49-35.43,118.65,118.65,0,0,1-25-38.75A126.84,126.84,0,0,1,1396.64,120.09Zm42.58,1.67a77.1,77.1,0,0,0,6.32,30.93,84.41,84.41,0,0,0,17,25.61,79.66,79.66,0,0,0,24.61,17.3,69.93,69.93,0,0,0,59.55-.67,80.94,80.94,0,0,0,24.44-17.79,82.7,82.7,0,0,0,16.47-25.95,77.85,77.85,0,0,0,5.65-31.1,77.27,77.27,0,0,0-6.32-30.93,82.52,82.52,0,0,0-17-25.45,80.93,80.93,0,0,0-24.78-17.13,72.21,72.21,0,0,0-29.77-6.32,73.14,73.14,0,0,0-29.61,6.82,76.71,76.71,0,0,0-24.28,17.63,85,85,0,0,0-16.3,25.78A81.81,81.81,0,0,0,1439.22,121.76Z" />
        <path fill="white"
          d="M1665.74,120.09a118.82,118.82,0,0,1,9.47-47.56,123.37,123.37,0,0,1,25.62-38.26,115.49,115.49,0,0,1,38.08-25.44A117.5,117.5,0,0,1,1786.15,0a119.55,119.55,0,0,1,49.73,11,121,121,0,0,1,39.41,29.27,4.13,4.13,0,0,1,.83,3,3.62,3.62,0,0,1-1.49,2.66L1848.35,68.2a4.08,4.08,0,0,1-3,.83,3.62,3.62,0,0,1-2.66-1.49,83.5,83.5,0,0,0-26-20.13,68.16,68.16,0,0,0-32.26-7.15,73.1,73.1,0,0,0-29.61,6.82,76.71,76.71,0,0,0-24.28,17.63,84.77,84.77,0,0,0-16.3,25.78,81.82,81.82,0,0,0-6,31.27,78,78,0,0,0,6.32,31.26,84.49,84.49,0,0,0,17,25.62,77.52,77.52,0,0,0,24.61,17.13,73.45,73.45,0,0,0,29.94,6.15,72.28,72.28,0,0,0,31.27-7.65,78.92,78.92,0,0,0,25.28-20,3.67,3.67,0,0,1,2.66-1.5,3.62,3.62,0,0,1,3,1.17l26.28,22.29a3.64,3.64,0,0,1,1.49,2.66,4.1,4.1,0,0,1-.83,3A122.77,122.77,0,0,1,1835,231.69q-23.28,10.8-50.89,10.48a115.82,115.82,0,0,1-46.73-9.48,117,117,0,0,1-37.76-25.95A118.62,118.62,0,0,1,1674.72,168,126.84,126.84,0,0,1,1665.74,120.09Z" />
        <path fill="white"
          d="M1914,233.38V8.33a3.68,3.68,0,0,1,.67-2.21A4,4,0,0,1,1918,4.37h31.63a13.57,13.57,0,0,1,11,5.33l171.42,223a3,3,0,0,1-2.66,4.66h-42.27a13.54,13.54,0,0,1-11-5.32l-57.58-75.23-57.92,75.23a13.56,13.56,0,0,1-11,5.32H1918a3.84,3.84,0,0,1-2.83-1.16A3.88,3.88,0,0,1,1914,233.38Zm42-156.86v89.14l34.26-44.57Z" />
        <path fill="white"
          d="M2158,8.33a3.68,3.68,0,0,1,.67-2.21A4,4,0,0,1,2162,4.37h176a4,4,0,0,1,4,4V57a12.74,12.74,0,0,1-3,8.33l-52.92,69,75.69,98.33a3,3,0,0,1,.17,3.17,2.71,2.71,0,0,1-2.51,1.5h-42.54a13.63,13.63,0,0,1-11.05-5.33l-73.34-95c-1.57-1.78-1.57-3.44,0-5l66-85.67H2200v187c0,2.67-1.46,4-4.35,4H2162a3.81,3.81,0,0,1-2.83-1.16,3.85,3.85,0,0,1-1.17-2.83Z" />
        <path fill="white"
          d="M2388,8.33a3.68,3.68,0,0,1,.67-2.21A4,4,0,0,1,2392,4.37h74.23a112.89,112.89,0,0,1,44.94,9,117.17,117.17,0,0,1,36.61,24.46,121.28,121.28,0,0,1,25.13,36.29,109.5,109.5,0,0,1,9.82,44.43,106.56,106.56,0,0,1-8.82,46.27A120.39,120.39,0,0,1,2510,228.05a116.74,116.74,0,0,1-46.43,9.32H2392a3.84,3.84,0,0,1-2.83-1.16,3.88,3.88,0,0,1-1.16-2.83Zm43,187h35.51a71.45,71.45,0,0,0,28.7-5.81,74.89,74.89,0,0,0,39.49-39.48,73.82,73.82,0,0,0,0-57.41,75,75,0,0,0-39.49-39.49,71.61,71.61,0,0,0-28.7-5.81H2431Z" />
      </g>
    </g>
  </g>
</svg>